<svg width="44" height="44" viewBox="0 0 44 44" fill="none" xmlns="http://www.w3.org/2000/svg">
<path fill-rule="evenodd" clip-rule="evenodd" d="M15.5413 16.2778C15.6837 16.1021 15.8978 16 16.124 16H28.75C29.8893 16 30.7239 17.0698 30.4476 18.1749L29.0996 23.5669C28.8179 24.6925 27.8609 25.5207 26.7057 25.6363L19.8897 26.3183C18.4938 26.457 17.2157 25.5242 16.9253 24.1514L15.3903 16.9054C15.3434 16.6842 15.3989 16.4535 15.5413 16.2778ZM17.0496 17.5L18.3927 23.8406C18.5244 24.4635 19.1046 24.8887 19.7404 24.8257L26.5564 24.1437C27.0811 24.0913 27.5161 23.7154 27.6444 23.2031L28.9924 17.8111C29.0322 17.6522 28.9128 17.5 28.75 17.5H17.0496Z" fill="#282828"/>
<path fill-rule="evenodd" clip-rule="evenodd" d="M13 13.75C13 13.3358 13.3358 13 13.75 13H15.474C15.827 13 16.1322 13.2462 16.207 13.5912L16.857 16.5912C16.9447 16.996 16.6876 17.3953 16.2828 17.483C15.878 17.5707 15.4787 17.3136 15.391 16.9088L14.8691 14.5H13.75C13.3358 14.5 13 14.1642 13 13.75Z" fill="#282828"/>
<path fill-rule="evenodd" clip-rule="evenodd" d="M17.833 29.383C17.8309 28.763 18.3347 28.267 18.947 28.267C19.5642 28.267 20.064 28.7668 20.064 29.384C20.064 30.0002 19.5642 30.5 18.948 30.5C18.337 30.5 17.8309 30.0053 17.833 29.383Z" fill="#282828"/>
<path fill-rule="evenodd" clip-rule="evenodd" d="M25.25 29.383C25.2479 28.763 25.7517 28.267 26.364 28.267C26.9812 28.267 27.481 28.7668 27.481 29.384C27.481 30.0002 26.9812 30.5 26.365 30.5C25.754 30.5 25.2479 30.0053 25.25 29.383Z" fill="#282828"/>
</svg>
