<svg width="48" height="48" viewBox="0 0 48 48" fill="none" xmlns="http://www.w3.org/2000/svg">
<path fill-rule="evenodd" clip-rule="evenodd" d="M19 15.75C18.3096 15.75 17.75 16.3096 17.75 17V31C17.75 31.6904 18.3096 32.25 19 32.25H20C20.4142 32.25 20.75 32.5858 20.75 33C20.75 33.4142 20.4142 33.75 20 33.75H19C17.4812 33.75 16.25 32.5188 16.25 31V17C16.25 15.4812 17.4812 14.25 19 14.25H27C28.5188 14.25 29.75 15.4812 29.75 17V22C29.75 22.4142 29.4142 22.75 29 22.75C28.5858 22.75 28.25 22.4142 28.25 22V17C28.25 16.3096 27.6904 15.75 27 15.75H19Z" fill="#282828"/>
<path fill-rule="evenodd" clip-rule="evenodd" d="M20.5 14.25C20.9142 14.25 21.25 14.5858 21.25 15V16.75H24.75V15C24.75 14.5858 25.0858 14.25 25.5 14.25C25.9142 14.25 26.25 14.5858 26.25 15V17C26.25 17.6904 25.6904 18.25 25 18.25H21C20.3096 18.25 19.75 17.6904 19.75 17V15C19.75 14.5858 20.0858 14.25 20.5 14.25Z" fill="#282828"/>
<path fill-rule="evenodd" clip-rule="evenodd" d="M22.25 27C22.25 25.4812 23.4812 24.25 25 24.25H31C32.5188 24.25 33.75 25.4812 33.75 27V31C33.75 32.5188 32.5188 33.75 31 33.75H25C23.4812 33.75 22.25 32.5188 22.25 31V27ZM25 25.75C24.3096 25.75 23.75 26.3096 23.75 27V31C23.75 31.6904 24.3096 32.25 25 32.25H31C31.6904 32.25 32.25 31.6904 32.25 31V27C32.25 26.3096 31.6904 25.75 31 25.75H25Z" fill="#282828"/>
<path fill-rule="evenodd" clip-rule="evenodd" d="M25.0926 27.6618C25.2794 27.2921 25.7305 27.1438 26.1003 27.3306L27.8425 28.2108C27.9495 28.2631 28.0746 28.2631 28.1816 28.2108L29.9238 27.3306C30.2935 27.1438 30.7447 27.2921 30.9315 27.6618C31.1182 28.0315 30.97 28.4826 30.6003 28.6694L28.8494 29.554C28.3218 29.8154 27.7024 29.8153 27.1748 29.554L27.1695 29.5514L25.4238 28.6694C25.0541 28.4826 24.9058 28.0315 25.0926 27.6618Z" fill="#282828"/>
<path fill-rule="evenodd" clip-rule="evenodd" d="M19 15.75C18.3096 15.75 17.75 16.3096 17.75 17V31C17.75 31.6904 18.3096 32.25 19 32.25H20C20.4142 32.25 20.75 32.5858 20.75 33C20.75 33.4142 20.4142 33.75 20 33.75H19C17.4812 33.75 16.25 32.5188 16.25 31V17C16.25 15.4812 17.4812 14.25 19 14.25H27C28.5188 14.25 29.75 15.4812 29.75 17V22C29.75 22.4142 29.4142 22.75 29 22.75C28.5858 22.75 28.25 22.4142 28.25 22V17C28.25 16.3096 27.6904 15.75 27 15.75H19Z" fill="#282828"/>
<path fill-rule="evenodd" clip-rule="evenodd" d="M20.5 14.25C20.9142 14.25 21.25 14.5858 21.25 15V16.75H24.75V15C24.75 14.5858 25.0858 14.25 25.5 14.25C25.9142 14.25 26.25 14.5858 26.25 15V17C26.25 17.6904 25.6904 18.25 25 18.25H21C20.3096 18.25 19.75 17.6904 19.75 17V15C19.75 14.5858 20.0858 14.25 20.5 14.25Z" fill="#282828"/>
<path fill-rule="evenodd" clip-rule="evenodd" d="M22.25 27C22.25 25.4812 23.4812 24.25 25 24.25H31C32.5188 24.25 33.75 25.4812 33.75 27V31C33.75 32.5188 32.5188 33.75 31 33.75H25C23.4812 33.75 22.25 32.5188 22.25 31V27ZM25 25.75C24.3096 25.75 23.75 26.3096 23.75 27V31C23.75 31.6904 24.3096 32.25 25 32.25H31C31.6904 32.25 32.25 31.6904 32.25 31V27C32.25 26.3096 31.6904 25.75 31 25.75H25Z" fill="#282828"/>
<path fill-rule="evenodd" clip-rule="evenodd" d="M25.0926 27.6618C25.2794 27.2921 25.7305 27.1438 26.1003 27.3306L27.8425 28.2108C27.9495 28.2631 28.0746 28.2631 28.1816 28.2108L29.9238 27.3306C30.2935 27.1438 30.7447 27.2921 30.9315 27.6618C31.1182 28.0315 30.97 28.4826 30.6003 28.6694L28.8494 29.554C28.3218 29.8154 27.7024 29.8153 27.1748 29.554L27.1695 29.5514L25.4238 28.6694C25.0541 28.4826 24.9058 28.0315 25.0926 27.6618Z" fill="#282828"/>
</svg>
