<svg width="55" height="45" viewBox="0 0 55 45" fill="none" xmlns="http://www.w3.org/2000/svg">
<path fill-rule="evenodd" clip-rule="evenodd" d="M5.24976 19.4016C5.24976 9.11237 15.5631 0.799988 28.2416 0.799988C40.9202 0.799988 51.2335 9.11237 51.2335 19.4016C51.2335 25.801 46.6648 32.117 41.8228 36.7145C39.3724 39.041 36.7717 41.0053 34.4777 42.4021C33.3325 43.0995 32.2319 43.6749 31.2384 44.0836C30.307 44.4668 29.2434 44.8 28.2416 44.8C27.2399 44.8 26.1763 44.4668 25.2449 44.0836C24.2514 43.6749 23.1507 43.0995 22.0056 42.4021C19.7115 41.0053 17.1108 39.041 14.6605 36.7145C9.81849 32.117 5.24976 25.801 5.24976 19.4016ZM28.2416 24.9463C23.888 24.9463 20.3587 22.0635 20.3587 18.5073C20.3587 14.9511 23.888 12.0683 28.2416 12.0683C32.5952 12.0683 36.1245 14.9511 36.1245 18.5073C36.1245 22.0635 32.5952 24.9463 28.2416 24.9463Z" fill="#00CDDF"/>
</svg>
