<svg width="209" height="40" viewBox="0 0 209 40" fill="none" xmlns="http://www.w3.org/2000/svg">
<g clip-path="url(#clip0_2065_712)">
<path d="M12 31.3982C18.6278 31.3982 24 26.1888 24 19.7619C24 13.3349 18.6278 8.12549 12 8.12549C5.37225 8.12549 0 13.3349 0 19.7619C0 26.188 5.37225 31.3982 12 31.3982Z" fill="#FA3E2C"/>
<path d="M13.7078 14.7734H12.5625C10.599 14.7734 9.61727 15.7552 9.61727 17.2265C9.61727 18.8628 10.272 19.6803 11.7443 20.6614L12.8903 21.4796L9.61727 26.5501H6.99902L10.1078 21.9698C8.30777 20.6614 7.32602 19.5167 7.32602 17.3901C7.32602 14.7734 9.12602 12.9741 12.5625 12.9741H15.999V26.5501H13.7078V14.7734Z" fill="white"/>
</g>
<path d="M40.512 29.336C37.5067 29.336 35.192 28.3747 33.568 26.452L35.444 24.212C36.7507 25.6867 38.4307 26.424 40.484 26.424C41.6413 26.424 42.5653 26.116 43.256 25.5C43.9653 24.8653 44.32 24.0813 44.32 23.148C44.32 22.14 43.9747 21.3373 43.284 20.74C42.612 20.124 41.7067 19.816 40.568 19.816C38.9813 19.816 37.6187 20.3573 36.48 21.44L34.156 20.768V10.324H46.392V13.208H37.432V18.612C38.5147 17.5293 39.924 16.988 41.66 16.988C43.3027 16.988 44.7027 17.5387 45.86 18.64C47.036 19.7227 47.624 21.1787 47.624 23.008C47.624 24.9307 46.9613 26.4707 45.636 27.628C44.3293 28.7667 42.6213 29.336 40.512 29.336ZM53.5771 28.748C53.1851 29.1213 52.7277 29.308 52.2051 29.308C51.6824 29.308 51.2251 29.1213 50.8331 28.748C50.4411 28.356 50.2451 27.8893 50.2451 27.348C50.2451 26.8067 50.4411 26.3493 50.8331 25.976C51.2251 25.584 51.6824 25.388 52.2051 25.388C52.7277 25.388 53.1851 25.584 53.5771 25.976C53.9691 26.3493 54.1651 26.8067 54.1651 27.348C54.1651 27.8893 53.9691 28.356 53.5771 28.748ZM66.9254 28.496C65.9361 29.056 64.8161 29.336 63.5654 29.336C62.3147 29.336 61.1947 29.056 60.2054 28.496C59.2161 27.936 58.4321 27.1893 57.8534 26.256C57.2747 25.3227 56.8361 24.296 56.5374 23.176C56.2387 22.056 56.0894 20.8893 56.0894 19.676C56.0894 18.4627 56.2387 17.296 56.5374 16.176C56.8361 15.056 57.2747 14.0387 57.8534 13.124C58.4321 12.1907 59.2161 11.444 60.2054 10.884C61.1947 10.324 62.3147 10.044 63.5654 10.044C64.8161 10.044 65.9361 10.324 66.9254 10.884C67.9147 11.444 68.6987 12.1907 69.2774 13.124C69.8561 14.0387 70.2947 15.056 70.5934 16.176C70.8921 17.296 71.0414 18.4627 71.0414 19.676C71.0414 20.8893 70.8921 22.056 70.5934 23.176C70.2947 24.296 69.8561 25.3227 69.2774 26.256C68.6987 27.1893 67.9147 27.936 66.9254 28.496ZM60.4294 24.52C61.1014 25.7893 62.1467 26.424 63.5654 26.424C64.9841 26.424 66.0294 25.7893 66.7014 24.52C67.3734 23.2507 67.7094 21.636 67.7094 19.676C67.7094 18.4253 67.5787 17.3147 67.3174 16.344C67.0747 15.3733 66.6267 14.5707 65.9734 13.936C65.3387 13.2827 64.5361 12.956 63.5654 12.956C62.5947 12.956 61.7827 13.2827 61.1294 13.936C60.4947 14.5707 60.0467 15.3733 59.7854 16.344C59.5427 17.3147 59.4214 18.4253 59.4214 19.676C59.4214 21.636 59.7574 23.2507 60.4294 24.52Z" fill="#282828"/>
<path d="M92.1287 10.3861C92.3828 9.8713 93.1169 9.8713 93.371 10.3861L96.1562 16.0285C96.257 16.2328 96.4518 16.3744 96.6771 16.4073L102.907 17.3179C103.475 17.4009 103.701 18.099 103.29 18.4995L98.7832 22.8888C98.6199 23.048 98.5453 23.2773 98.5838 23.5021L99.6472 29.7023C99.7443 30.2682 99.1503 30.6997 98.6421 30.4324L93.0723 27.5033C92.8705 27.3972 92.6293 27.3972 92.4275 27.5033L86.8577 30.4324C86.3495 30.6997 85.7555 30.2682 85.8525 29.7023L86.9159 23.5021C86.9545 23.2773 86.8799 23.048 86.7165 22.8888L82.21 18.4995C81.7988 18.099 82.0252 17.4009 82.5931 17.3179L88.8226 16.4073C89.048 16.3744 89.2428 16.2328 89.3436 16.0285L92.1287 10.3861Z" fill="#EEB83B"/>
<path d="M118.129 10.3861C118.383 9.8713 119.117 9.8713 119.371 10.3861L122.156 16.0285C122.257 16.2328 122.452 16.3744 122.677 16.4073L128.907 17.3179C129.475 17.4009 129.701 18.099 129.29 18.4995L124.783 22.8888C124.62 23.048 124.545 23.2773 124.584 23.5021L125.647 29.7023C125.744 30.2682 125.15 30.6997 124.642 30.4324L119.072 27.5033C118.87 27.3972 118.629 27.3972 118.427 27.5033L112.858 30.4324C112.349 30.6997 111.755 30.2682 111.853 29.7023L112.916 23.5021C112.954 23.2773 112.88 23.048 112.717 22.8888L108.21 18.4995C107.799 18.099 108.025 17.4009 108.593 17.3179L114.823 16.4073C115.048 16.3744 115.243 16.2328 115.344 16.0285L118.129 10.3861Z" fill="#EEB83B"/>
<path d="M144.129 10.3861C144.383 9.8713 145.117 9.8713 145.371 10.3861L148.156 16.0285C148.257 16.2328 148.452 16.3744 148.677 16.4073L154.907 17.3179C155.475 17.4009 155.701 18.099 155.29 18.4995L150.783 22.8888C150.62 23.048 150.545 23.2773 150.584 23.5021L151.647 29.7023C151.744 30.2682 151.15 30.6997 150.642 30.4324L145.072 27.5033C144.87 27.3972 144.629 27.3972 144.427 27.5033L138.858 30.4324C138.349 30.6997 137.755 30.2682 137.853 29.7023L138.916 23.5021C138.954 23.2773 138.88 23.048 138.717 22.8888L134.21 18.4995C133.799 18.099 134.025 17.4009 134.593 17.3179L140.823 16.4073C141.048 16.3744 141.243 16.2328 141.344 16.0285L144.129 10.3861Z" fill="#EEB83B"/>
<path d="M170.129 10.3861C170.383 9.8713 171.117 9.8713 171.371 10.3861L174.156 16.0285C174.257 16.2328 174.452 16.3744 174.677 16.4073L180.907 17.3179C181.475 17.4009 181.701 18.099 181.29 18.4995L176.783 22.8888C176.62 23.048 176.545 23.2773 176.584 23.5021L177.647 29.7023C177.744 30.2682 177.15 30.6997 176.642 30.4324L171.072 27.5033C170.87 27.3972 170.629 27.3972 170.427 27.5033L164.858 30.4324C164.349 30.6997 163.755 30.2682 163.853 29.7023L164.916 23.5021C164.954 23.2773 164.88 23.048 164.717 22.8888L160.21 18.4995C159.799 18.099 160.025 17.4009 160.593 17.3179L166.823 16.4073C167.048 16.3744 167.243 16.2328 167.344 16.0285L170.129 10.3861Z" fill="#EEB83B"/>
<path d="M196.129 10.3861C196.383 9.8713 197.117 9.8713 197.371 10.3861L200.156 16.0285C200.257 16.2328 200.452 16.3744 200.677 16.4073L206.907 17.3179C207.475 17.4009 207.701 18.099 207.29 18.4995L202.783 22.8888C202.62 23.048 202.545 23.2773 202.584 23.5021L203.647 29.7023C203.744 30.2682 203.15 30.6997 202.642 30.4324L197.072 27.5033C196.87 27.3972 196.629 27.3972 196.427 27.5033L190.858 30.4324C190.349 30.6997 189.755 30.2682 189.853 29.7023L190.916 23.5021C190.954 23.2773 190.88 23.048 190.717 22.8888L186.21 18.4995C185.799 18.099 186.025 17.4009 186.593 17.3179L192.823 16.4073C193.048 16.3744 193.243 16.2328 193.344 16.0285L196.129 10.3861Z" fill="#EEB83B"/>
<defs>
<clipPath id="clip0_2065_712">
<rect width="24" height="24" fill="white" transform="translate(0 8)"/>
</clipPath>
</defs>
</svg>
