<svg width="48" height="48" viewBox="0 0 48 48" fill="none" xmlns="http://www.w3.org/2000/svg">
<path fill-rule="evenodd" clip-rule="evenodd" d="M23.0585 16.7467C19.5725 16.7467 16.7466 19.5726 16.7466 23.0586C16.7466 26.5446 19.5725 29.3706 23.0585 29.3706C26.5445 29.3706 29.3705 26.5446 29.3705 23.0586C29.3705 19.5726 26.5445 16.7467 23.0585 16.7467ZM15.2466 23.0586C15.2466 18.7442 18.7441 15.2467 23.0585 15.2467C27.3729 15.2467 30.8705 18.7442 30.8705 23.0586C30.8705 27.373 27.3729 30.8706 23.0585 30.8706C18.7441 30.8706 15.2466 27.373 15.2466 23.0586Z" fill="#282828"/>
<path fill-rule="evenodd" clip-rule="evenodd" d="M27.5214 27.5214C27.8143 27.2285 28.2892 27.2285 28.5821 27.5214L32.5337 31.473C32.8266 31.7659 32.8266 32.2408 32.5337 32.5337C32.2408 32.8266 31.766 32.8266 31.4731 32.5337L27.5214 28.582C27.2285 28.2891 27.2285 27.8143 27.5214 27.5214Z" fill="#282828"/>
</svg>
