<svg width="44" height="44" viewBox="0 0 44 44" fill="none" xmlns="http://www.w3.org/2000/svg">
<path fill-rule="evenodd" clip-rule="evenodd" d="M13.25 29.25C13.25 26.4886 15.4886 24.25 18.25 24.25H25.75C28.5114 24.25 30.75 26.4886 30.75 29.25V30C30.75 30.4142 30.4142 30.75 30 30.75C29.5858 30.75 29.25 30.4142 29.25 30V29.25C29.25 27.317 27.683 25.75 25.75 25.75H18.25C16.317 25.75 14.75 27.317 14.75 29.25V30C14.75 30.4142 14.4142 30.75 14 30.75C13.5858 30.75 13.25 30.4142 13.25 30V29.25Z" fill="#282828"/>
<path fill-rule="evenodd" clip-rule="evenodd" d="M22 13.75C20.2051 13.75 18.75 15.2051 18.75 17C18.75 18.7949 20.2051 20.25 22 20.25C23.7949 20.25 25.25 18.7949 25.25 17C25.25 15.2051 23.7949 13.75 22 13.75ZM17.25 17C17.25 14.3766 19.3766 12.25 22 12.25C24.6234 12.25 26.75 14.3766 26.75 17C26.75 19.6234 24.6234 21.75 22 21.75C19.3766 21.75 17.25 19.6234 17.25 17Z" fill="#282828"/>
</svg>
